<svg width="59" height="55" viewBox="0 0 59 55" fill="none" xmlns="http://www.w3.org/2000/svg">
<g filter="url(#filter0_d_8_985)">
<circle cx="25" cy="27" r="21" fill="#FF6633"/>
<circle cx="25" cy="27" r="20.5" stroke="white"/>
</g>
<path d="M18.875 29.2969H20.8281C20.7656 30.0417 20.5573 30.7057 20.2031 31.2891C19.849 31.8672 19.3516 32.3229 18.7109 32.6562C18.0703 32.9896 17.2917 33.1562 16.375 33.1562C15.6719 33.1562 15.0391 33.0312 14.4766 32.7812C13.9141 32.526 13.4323 32.1667 13.0312 31.7031C12.6302 31.2344 12.3229 30.6693 12.1094 30.0078C11.901 29.3464 11.7969 28.6068 11.7969 27.7891V26.8438C11.7969 26.026 11.9036 25.2865 12.1172 24.625C12.3359 23.9635 12.6484 23.3984 13.0547 22.9297C13.4609 22.4557 13.9479 22.0938 14.5156 21.8438C15.0885 21.5938 15.7318 21.4688 16.4453 21.4688C17.3516 21.4688 18.1172 21.6354 18.7422 21.9688C19.3672 22.3021 19.8516 22.763 20.1953 23.3516C20.5443 23.9401 20.7578 24.6146 20.8359 25.375H18.8828C18.8307 24.8854 18.7161 24.4661 18.5391 24.1172C18.3672 23.7682 18.112 23.5026 17.7734 23.3203C17.4349 23.1328 16.9922 23.0391 16.4453 23.0391C15.9974 23.0391 15.6068 23.1224 15.2734 23.2891C14.9401 23.4557 14.6615 23.7005 14.4375 24.0234C14.2135 24.3464 14.0443 24.7448 13.9297 25.2188C13.8203 25.6875 13.7656 26.224 13.7656 26.8281V27.7891C13.7656 28.362 13.8151 28.8828 13.9141 29.3516C14.0182 29.8151 14.1745 30.2135 14.3828 30.5469C14.5964 30.8802 14.8672 31.138 15.1953 31.3203C15.5234 31.5026 15.9167 31.5938 16.375 31.5938C16.9323 31.5938 17.3828 31.5052 17.7266 31.3281C18.0755 31.151 18.3385 30.8932 18.5156 30.5547C18.6979 30.2109 18.8177 29.7917 18.875 29.2969ZM22.5 32.0625C22.5 31.7708 22.599 31.526 22.7969 31.3281C22.9948 31.125 23.263 31.0234 23.6016 31.0234C23.9453 31.0234 24.2135 31.125 24.4062 31.3281C24.6042 31.526 24.7031 31.7708 24.7031 32.0625C24.7031 32.3542 24.6042 32.599 24.4062 32.7969C24.2135 32.9948 23.9453 33.0938 23.6016 33.0938C23.263 33.0938 22.9948 32.9948 22.7969 32.7969C22.599 32.599 22.5 32.3542 22.5 32.0625ZM31.4922 23.1406L28.0938 33H26.0391L30.3203 21.625H31.6328L31.4922 23.1406ZM34.3359 33L30.9297 23.1406L30.7812 21.625H32.1016L36.3984 33H34.3359ZM34.1719 28.7812V30.3359H27.9844V28.7812H34.1719ZM37.5625 32.0625C37.5625 31.7708 37.6615 31.526 37.8594 31.3281C38.0573 31.125 38.3255 31.0234 38.6641 31.0234C39.0078 31.0234 39.276 31.125 39.4688 31.3281C39.6667 31.526 39.7656 31.7708 39.7656 32.0625C39.7656 32.3542 39.6667 32.599 39.4688 32.7969C39.276 32.9948 39.0078 33.0938 38.6641 33.0938C38.3255 33.0938 38.0573 32.9948 37.8594 32.7969C37.6615 32.599 37.5625 32.3542 37.5625 32.0625Z" fill="white"/>
<g filter="url(#filter1_d_8_985)">
<circle cx="43" cy="13" r="9" fill="#3361FF"/>
<circle cx="43" cy="13" r="8" stroke="white" stroke-width="2"/>
</g>
<defs>
<filter id="filter0_d_8_985" x="0" y="3" width="52" height="52" filterUnits="userSpaceOnUse" color-interpolation-filters="sRGB">
<feFlood flood-opacity="0" result="BackgroundImageFix"/>
<feColorMatrix in="SourceAlpha" type="matrix" values="0 0 0 0 0 0 0 0 0 0 0 0 0 0 0 0 0 0 127 0" result="hardAlpha"/>
<feOffset dx="1" dy="2"/>
<feGaussianBlur stdDeviation="2.5"/>
<feComposite in2="hardAlpha" operator="out"/>
<feColorMatrix type="matrix" values="0 0 0 0 0 0 0 0 0 0 0 0 0 0 0 0 0 0 0.25 0"/>
<feBlend mode="normal" in2="BackgroundImageFix" result="effect1_dropShadow_8_985"/>
<feBlend mode="normal" in="SourceGraphic" in2="effect1_dropShadow_8_985" result="shape"/>
</filter>
<filter id="filter1_d_8_985" x="31" y="0" width="28" height="28" filterUnits="userSpaceOnUse" color-interpolation-filters="sRGB">
<feFlood flood-opacity="0" result="BackgroundImageFix"/>
<feColorMatrix in="SourceAlpha" type="matrix" values="0 0 0 0 0 0 0 0 0 0 0 0 0 0 0 0 0 0 127 0" result="hardAlpha"/>
<feMorphology radius="1" operator="dilate" in="SourceAlpha" result="effect1_dropShadow_8_985"/>
<feOffset dx="2" dy="1"/>
<feGaussianBlur stdDeviation="2"/>
<feComposite in2="hardAlpha" operator="out"/>
<feColorMatrix type="matrix" values="0 0 0 0 0 0 0 0 0 0 0 0 0 0 0 0 0 0 0.25 0"/>
<feBlend mode="normal" in2="BackgroundImageFix" result="effect1_dropShadow_8_985"/>
<feBlend mode="normal" in="SourceGraphic" in2="effect1_dropShadow_8_985" result="shape"/>
</filter>
</defs>
</svg>
